# xmcd
#
# Track frame offsets: 
#        150
#        6691
#        13829
#        20917
#        28015
#        34551
#        43019
#        51034
#        60526
#        66900
#        74995
#        81080
#        86628
#        92907
#        98620
#        104103
#        111873
#        118607
#        126291
#        133150
#        138947
#        145495
#        152774
#
# Disc length: 2153 seconds
#
# Revision: 0
# Processed by: cddbd v1.5.2PL0 Copyright (c) Steve Scherf et al.
# Submitted via: ExactAudioCopy v1.3
#
DISCID=59086717
DTITLE=Bud Isaacs - The Master of The Steelguitar
DYEAR=1900
DGENRE=Instrumental
TTITLE0=Hot Mockin' Bird
TTITLE1=Steelin' Home
TTITLE2=Steel Guitat Stomp
TTITLE3=Roadside Rag
TTITLE4=Panhandle Rag
TTITLE5=Song Of The Island
TTITLE6=Steel Guitar Rag -1
TTITLE7=Yesterday's Waltz
TTITLE8=Blue Steel Blues
TTITLE9=Twilight Blues
TTITLE10=Blue Bonnet Rag
TTITLE11=Steelin' The Chimes
TTITLE12=Red Sails In The Sunset
TTITLE13=Spanish Fandango
TTITLE14=Go Ask Your Mama
TTITLE15=Bud's Boogie
TTITLE16=Hometown Stomp
TTITLE17=Wabash Blues
TTITLE18=Coconut Grove
TTITLE19=Steel Guitar Jubilee
TTITLE20=Texas Playboy Rag -1
TTITLE21=The Pumpukin' Stomp
TTITLE22=The Waltz You Saved For Me -2
EXTD=
EXTT0=
EXTT1=
EXTT2=
EXTT3=
EXTT4=
EXTT5=
EXTT6=
EXTT7=
EXTT8=
EXTT9=
EXTT10=
EXTT11=
EXTT12=
EXTT13=
EXTT14=
EXTT15=
EXTT16=
EXTT17=
EXTT18=
EXTT19=
EXTT20=
EXTT21=
EXTT22=
PLAYORDER=
